<?xml version="1.0" encoding="utf-8"?>
<svg viewBox="0 0 125 125" xmlns="http://www.w3.org/2000/svg">
  <g id="g-1" featurekey="S6ay6y-0" transform="matrix(1.249688, 0, 0, 1.249688, 0.00311, 0.060129)" fill="#dbdbdb">
    <title xmlns="http://www.w3.org/2000/svg"/>
    <path xmlns="http://www.w3.org/2000/svg" d="M85.32,62.07A68.22,68.22,0,0,1,79,66.23c-.54.31-1.08.62-1.63.92l-.2.11-.11,0,0,0h0l-.07,0-.1.05c-.14.08-.32.17-.52.26a14,14,0,0,1-1.32.52c-.48.17-1,.31-1.48.45a30.59,30.59,0,0,1-3.14.65c-1.08.18-2.19.31-3.33.41-2.27.2-4.65.28-7.16.32s-5.15.06-7.92.14c-1.38,0-2.8.11-4.25.21l-2.19.18c-.74.07-1.48.16-2.25.27a61,61,0,0,0-9,2,90.87,90.87,0,0,0-8.63,3c-1.39.57-2.76,1.16-4.12,1.77a39.89,39.89,0,0,0,9.58,7.16c2-1,4-2,6-2.83a48.67,48.67,0,0,1,7.14-2.39c.57-.14,1.17-.28,1.77-.4s1.2-.23,1.8-.33c1.2-.21,2.4-.38,3.59-.53,2.38-.31,4.73-.53,7-.79s4.53-.52,6.73-.9c1.09-.2,2.18-.42,3.26-.69a29.78,29.78,0,0,0,3.27-1c.56-.2,1.12-.43,1.7-.69l.89-.44c.3-.15.62-.33,1-.53a11.4,11.4,0,0,0,1.08-.7c.1-.06.2-.15.31-.22L77,72.1l.09-.07.07-.06.1-.09.19-.18L79,70.22q3.14-3,6.22-6.08c1-1.07,2.09-2.14,3.13-3.23.16-.52.3-1,.43-1.57Q87.07,60.78,85.32,62.07Z" style="fill-rule: evenodd;"/>
    <path xmlns="http://www.w3.org/2000/svg" d="M80.24,49.11l-1.68-.06-.42,0-.21,0h-.16c-.19,0-.42,0-.65,0-1,0-2-.13-3.14-.26-2.21-.26-4.54-.66-6.94-1.12s-4.87-1-7.43-1.54-5.19-1.11-7.9-1.64c-1.36-.26-2.73-.52-4.13-.76l-2.12-.35-1.06-.17L43.3,43c-2.94-.4-5.92-.63-8.95-.74s-6.09-.09-9.19,0-6.25.33-9.43.61c-1.75.15-3.51.33-5.27.51a40.83,40.83,0,0,0-.46,6.1,41.64,41.64,0,0,0,.31,5c2.25-.38,4.44-.75,6.61-1.08,3-.48,6-.9,8.93-1.24s5.77-.59,8.56-.72,5.52-.19,8.15-.08l1,0,1,0,2,.12,3.92.31c2.59.23,5.13.49,7.62.73s4.93.48,7.33.65,4.74.28,7.12.25c1.2,0,2.39-.06,3.72-.21.34,0,.68-.08,1.06-.15l.14,0h.07l.06,0,.21-.06.43-.11,1.7-.46c2.26-.6,4.46-1.21,6.61-1.8l3.47-1v-.24c0-.24,0-.48,0-.72-1.06.11-2.15.19-3.24.24C84.63,49.15,82.47,49.17,80.24,49.11Z" style="fill-rule: evenodd;"/>
    <path xmlns="http://www.w3.org/2000/svg" d="M79.08,74.93c-.5.46-1,.91-1.52,1.35l-.19.17-.08.07,0,0-.07.06-.09.08-.46.37-.58.4-.63.4c-.44.26-.9.51-1.37.75-.94.47-1.94.89-3,1.28s-2.08.73-3.17,1c-2.17.64-4.46,1.18-6.86,1.71s-4.92,1-7.51,1.58c-1.29.28-2.61.56-3.93.87-.67.15-1.34.3-2,.47l-1,.24-1,.27c-2.11.56-4.21,1.22-6.28,2a40.05,40.05,0,0,0,45.6-19Q82,72.23,79.08,74.93Z" style="fill-rule: evenodd;"/>
    <path xmlns="http://www.w3.org/2000/svg" d="M80.29,26.58l.77.66.78.61,1.56,1.24c.63.5,1.25,1,1.87,1.55A40.08,40.08,0,0,0,58.79,10.48,218.06,218.06,0,0,1,77.17,24Z" style="fill-rule: evenodd;"/>
    <path xmlns="http://www.w3.org/2000/svg" d="M82.65,33.53l-1.57-1.14c-.26-.18-.52-.38-.79-.56l-.8-.51c-1.07-.68-2.15-1.36-3.24-2A266.39,266.39,0,0,0,48.52,14.44q-4.16-1.92-8.41-3.69A39.84,39.84,0,0,0,27,16.82Q37.06,19.4,46.5,22.47a301,301,0,0,1,29,11.08c1.12.5,2.23,1,3.33,1.51l.83.38.82.32c.56.21,1.1.43,1.65.66q3.27,1.32,6.39,2.84l.19.1c-.16-.63-.34-1.24-.53-1.85Q85.44,35.56,82.65,33.53Z" style="fill-rule: evenodd;"/>
    <path xmlns="http://www.w3.org/2000/svg" d="M87.76,43.12c-2.08-.66-4.21-1.39-6.38-2.17l-1.64-.59-.82-.3-.81-.24-3.37-1c-4.56-1.37-9.33-2.81-14.28-4.27-2.48-.72-5-1.46-7.58-2.19L49,31.26l-2-.54-1-.27-1-.26c-1.37-.32-2.72-.63-4.09-.93l-4.13-.89q-4.15-.87-8.45-1.69c-3.21-.61-6.47-1.21-9.78-1.77a39.76,39.76,0,0,0-5.79,10.22q7.17.66,14,1.38c3,.31,5.86.63,8.72,1l4.24.5c1.39.16,2.78.33,4.12.51l1,.13,1,.15,2,.32,4,.65L59.44,41c5.07.83,9.93,1.62,14.6,2.32l3.48.5.88.12c.28,0,.57,0,.85.05l1.69.1q3.36.21,6.56.52l2.23.23-.15-1.15C89,43.51,88.37,43.32,87.76,43.12Z" style="fill-rule: evenodd;"/>
    <path xmlns="http://www.w3.org/2000/svg" d="M85.94,55.23a63.91,63.91,0,0,1-6.49,2.12l-1.68.43-.42.1-.11,0,0,0-.06,0h-.06l-.58.15c-.44.09-.92.17-1.43.24s-1,.12-1.56.16c-1.08.09-2.19.12-3.32.13s-2.31,0-3.48-.08c-2.38-.11-4.85-.31-7.41-.54s-5.23-.5-8-.72c-1.39-.12-2.79-.22-4.22-.31-.71,0-1.43-.09-2.16-.12l-1.09,0-1.13,0a75.12,75.12,0,0,0-9.21.4c-3.09.32-6.18.82-9.28,1.44S18,60,15,60.82l-3.08.85a40.21,40.21,0,0,0,4.88,10.11l1.76-.65c2.75-1,5.48-1.9,8.19-2.7s5.42-1.47,8.08-2a66.5,66.5,0,0,1,7.81-1.08l.95-.06,1,0c.65,0,1.3-.06,1.95-.09,1.29,0,2.57-.08,3.84-.1,2.54,0,5,0,7.45-.08s4.79-.08,7.12-.22c1.17-.07,2.32-.16,3.46-.29s2.3-.3,3.47-.52c.59-.12,1.18-.25,1.79-.4s1.23-.35,1.92-.59c.34-.12.7-.26,1.09-.43l.15-.07.16-.07.15-.07.11-.06.42-.24,1.66-1c2.21-1.3,4.38-2.61,6.5-3.95q2-1.24,3.91-2.51l.12-1C88.53,54.17,87.25,54.72,85.94,55.23Z" style="fill-rule: evenodd;"/>
  </g>
</svg>